<?xml version="1.0" standalone="no"?>
<svg xmlns:xlink="http://www.w3.org/1999/xlink" id="wave" style="transform:rotate(0deg); transition: 0.3s" viewBox="0 0 1440 100" version="1.1" xmlns="http://www.w3.org/2000/svg"><defs><linearGradient id="sw-gradient-0" x1="0" x2="0" y1="1" y2="0"><stop stop-color="#f5f6f8" offset="0%"/><stop stop-color="#f5f6f8" offset="100%"/></linearGradient></defs><path style="transform:translate(0, 0px); opacity:1" fill="url(#sw-gradient-0)" d="M0,80L26.7,78.3C53.3,77,107,73,160,65C213.3,57,267,43,320,36.7C373.3,30,427,30,480,40C533.3,50,587,70,640,68.3C693.3,67,747,43,800,41.7C853.3,40,907,60,960,63.3C1013.3,67,1067,53,1120,46.7C1173.3,40,1227,40,1280,46.7C1333.3,53,1387,67,1440,71.7C1493.3,77,1547,73,1600,63.3C1653.3,53,1707,37,1760,28.3C1813.3,20,1867,20,1920,23.3C1973.3,27,2027,33,2080,41.7C2133.3,50,2187,60,2240,60C2293.3,60,2347,50,2400,38.3C2453.3,27,2507,13,2560,15C2613.3,17,2667,33,2720,43.3C2773.3,53,2827,57,2880,48.3C2933.3,40,2987,20,3040,21.7C3093.3,23,3147,47,3200,53.3C3253.3,60,3307,50,3360,50C3413.3,50,3467,60,3520,56.7C3573.3,53,3627,37,3680,31.7C3733.3,27,3787,33,3813,36.7L3840,40L3840,100L3813.3,100C3786.7,100,3733,100,3680,100C3626.7,100,3573,100,3520,100C3466.7,100,3413,100,3360,100C3306.7,100,3253,100,3200,100C3146.7,100,3093,100,3040,100C2986.7,100,2933,100,2880,100C2826.7,100,2773,100,2720,100C2666.7,100,2613,100,2560,100C2506.7,100,2453,100,2400,100C2346.7,100,2293,100,2240,100C2186.7,100,2133,100,2080,100C2026.7,100,1973,100,1920,100C1866.7,100,1813,100,1760,100C1706.7,100,1653,100,1600,100C1546.7,100,1493,100,1440,100C1386.7,100,1333,100,1280,100C1226.7,100,1173,100,1120,100C1066.7,100,1013,100,960,100C906.7,100,853,100,800,100C746.7,100,693,100,640,100C586.7,100,533,100,480,100C426.7,100,373,100,320,100C266.7,100,213,100,160,100C106.7,100,53,100,27,100L0,100Z"/></svg>